<svg width="242" height="52" viewBox="0 0 242 52" fill="none" xmlns="http://www.w3.org/2000/svg">
<g id="Asset 2">
<path id="Vector" d="M0 25.9992C0 20.1015 4.59782 15.4089 10.7179 15.4089C13.3442 15.3794 15.8874 16.3289 17.8517 18.0724L16.3294 19.8257C14.7778 18.4293 12.9366 17.7328 10.7179 17.7328C6.12008 17.7328 2.6325 21.4428 2.6325 26.0078C2.6325 30.5729 6.12008 34.2829 10.7179 34.2829C11.9645 34.2851 13.1941 33.9934 14.3068 33.4315C15.4196 32.8696 16.3842 32.0532 17.1224 31.0487V26.7215H12.6522V24.5666H19.5963V31.9538C17.7 34.8087 14.4589 36.5844 10.7179 36.5844C4.59782 36.5912 0 31.8934 0 25.9992Z" fill="white"/>
<path id="Vector_2" d="M24.1934 15.7261H26.4449L31.4547 22.7012C32.5339 24.2235 34.7854 27.4577 34.7854 27.4577C34.7854 27.4577 37.0369 24.2563 38.1144 22.734L43.1242 15.7261H45.3757V36.274H42.8381V20.0067C42.3753 20.8165 41.8677 21.5998 41.3175 22.353L34.7854 31.5486L28.2205 22.2892C27.3017 20.9893 26.731 20.0067 26.731 20.0067V36.274H24.1934V15.7261Z" fill="white"/>
<path id="Vector_3" d="M50.168 15.7261H58.6016C64.2786 15.7261 67.3852 19.174 67.3852 23.4322C67.3852 27.6904 64.2821 31.1366 58.5706 31.1366H52.7091V36.274H50.168V15.7261ZM58.824 28.9161C62.4443 28.9161 64.7527 26.444 64.7527 23.4322C64.7527 20.4204 62.4392 17.9465 58.855 17.9465H52.6988V28.9161H58.824Z" fill="white"/>
<path id="Vector_4" d="M11.8787 13.9177C14.0355 10.0238 17.1955 6.77851 21.0305 4.51874C24.8655 2.25898 29.2356 1.0672 33.6868 1.0672C38.1381 1.0672 42.5082 2.25898 46.3432 4.51874C50.1781 6.77851 53.3382 10.0238 55.495 13.9177H56.7018C54.4993 9.71992 51.1907 6.2045 47.1341 3.75184C43.0774 1.29917 38.4273 0.00268555 33.6868 0.00268555C28.9464 0.00268555 24.2962 1.29917 20.2396 3.75184C16.1829 6.2045 12.8744 9.71992 10.6719 13.9177H11.8787Z" fill="white"/>
<path id="Vector_5" d="M57.3089 34.0122C53.9627 43.8388 44.6394 50.9399 33.6905 50.9399C29.2085 50.9365 24.8101 49.7265 20.957 47.4368C17.1039 45.1472 13.9384 41.8624 11.7927 37.9274H10.5859C12.7779 42.1639 16.0918 45.7167 20.1658 48.1979C24.2397 50.679 28.9171 51.9931 33.6871 51.9967C45.2377 51.9967 55.035 44.4371 58.4226 34.0088L57.3089 34.0122Z" fill="white"/>
</g>
</svg>
